<?xml version="1.0" encoding="UTF-8" standalone="no"?>
<!-- Created with Inkscape (http://www.inkscape.org/) -->

<svg
   xmlns:osb="http://www.openswatchbook.org/uri/2009/osb"
   xmlns:dc="http://purl.org/dc/elements/1.1/"
   xmlns:cc="http://creativecommons.org/ns#"
   xmlns:rdf="http://www.w3.org/1999/02/22-rdf-syntax-ns#"
   xmlns:svg="http://www.w3.org/2000/svg"
   xmlns="http://www.w3.org/2000/svg"
   xmlns:xlink="http://www.w3.org/1999/xlink"
   xmlns:sodipodi="http://sodipodi.sourceforge.net/DTD/sodipodi-0.dtd"
   xmlns:inkscape="http://www.inkscape.org/namespaces/inkscape"
   width="500"
   height="500"
   viewBox="0 0 132.29166 132.29167"
   version="1.1"
   id="svg8"
   inkscape:version="0.92.4 (5da689c313, 2019-01-14)"
   sodipodi:docname="jackal.svg">
  <defs
     id="defs2">
    <inkscape:path-effect
       effect="sketch"
       id="path-effect4664"
       is_visible="true"
       nbiter_approxstrokes="40"
       strokelength="20"
       strokelength_rdm="0.4;1"
       strokeoverlap="0.3"
       strokeoverlap_rdm="0.3;1"
       ends_tolerance="1;1"
       parallel_offset="20;1"
       tremble_size="1;1"
       tremble_frequency="1"
       nbtangents="0"
       tgt_places_rdmness="1;1"
       tgtscale="10"
       tgtlength="100"
       tgtlength_rdm="0.3;1" />
    <linearGradient
       id="linearGradient1417"
       osb:paint="solid"
       gradientTransform="scale(0.26458333)">
      <stop
         style="stop-color:#2b281f;stop-opacity:1;"
         offset="0"
         id="stop1415" />
    </linearGradient>
    <linearGradient
       id="linearGradient1411"
       osb:paint="solid">
      <stop
         style="stop-color:#5e594f;stop-opacity:1;"
         offset="0"
         id="stop1409" />
    </linearGradient>
    <linearGradient
       id="linearGradient1405"
       osb:paint="solid">
      <stop
         style="stop-color:#928b80;stop-opacity:1;"
         offset="0"
         id="stop1403" />
    </linearGradient>
    <linearGradient
       id="linearGradient1391"
       osb:paint="solid"
       gradientTransform="matrix(2.9005741e-4,1.8319117e-4,-1.8319117e-4,2.9005741e-4,-128.89688,994.16633)">
      <stop
         style="stop-color:#c6bdb1;stop-opacity:1;"
         offset="0"
         id="stop1389" />
    </linearGradient>
    <linearGradient
       id="linearGradient1159"
       osb:paint="solid">
      <stop
         style="stop-color:#3f2b18;stop-opacity:1;"
         offset="0"
         id="stop1157" />
    </linearGradient>
    <linearGradient
       id="linearGradient1153"
       osb:paint="solid"
       gradientTransform="scale(0.00490061)">
      <stop
         style="stop-color:#614d36;stop-opacity:1;"
         offset="0"
         id="stop1151" />
    </linearGradient>
    <linearGradient
       id="linearGradient1147"
       osb:paint="solid"
       gradientTransform="scale(0.01852198)">
      <stop
         style="stop-color:#836f55;stop-opacity:1;"
         offset="0"
         id="stop1145" />
    </linearGradient>
    <linearGradient
       id="linearGradient1141"
       osb:paint="solid"
       gradientTransform="scale(0.01852198)">
      <stop
         style="stop-color:#a59274;stop-opacity:1;"
         offset="0"
         id="stop1139" />
    </linearGradient>
    <linearGradient
       id="linearGradient1135"
       osb:paint="solid"
       gradientTransform="scale(0.00490061)">
      <stop
         style="stop-color:#c7b493;stop-opacity:1;"
         offset="0"
         id="stop1133" />
    </linearGradient>
    <linearGradient
       id="linearGradient1129"
       osb:paint="solid">
      <stop
         style="stop-color:#ead7b2;stop-opacity:1;"
         offset="0"
         id="stop1127" />
    </linearGradient>
    <linearGradient
       inkscape:collect="always"
       id="linearGradient1665">
      <stop
         id="stop1663"
         offset="0"
         style="stop-color:#9d9d9d;stop-opacity:1" />
      <stop
         id="stop1661"
         offset="1"
         style="stop-color:#141414;stop-opacity:1" />
    </linearGradient>
    <radialGradient
       inkscape:collect="always"
       xlink:href="#linearGradient1665"
       id="radialGradient1671"
       cx="147.71375"
       cy="164.66586"
       fx="147.71375"
       fy="164.66586"
       r="2.382632"
       gradientTransform="matrix(1,0,0,0.92110916,0.04724702,13.029015)"
       gradientUnits="userSpaceOnUse" />
  </defs>
  <sodipodi:namedview
     id="base"
     pagecolor="#ffffff"
     bordercolor="#666666"
     borderopacity="1.0"
     inkscape:pageopacity="0.0"
     inkscape:pageshadow="2"
     inkscape:zoom="0.49497475"
     inkscape:cx="-509.77387"
     inkscape:cy="-60.699001"
     inkscape:document-units="mm"
     inkscape:current-layer="layer1"
     showgrid="false"
     inkscape:window-width="1920"
     inkscape:window-height="1016"
     inkscape:window-x="0"
     inkscape:window-y="27"
     inkscape:window-maximized="1"
     inkscape:snap-global="false"
     fit-margin-top="5"
     fit-margin-left="5"
     fit-margin-right="5"
     fit-margin-bottom="5"
     units="px" />
  <metadata
     id="metadata5">
    <rdf:RDF>
      <cc:Work
         rdf:about="">
        <dc:format>image/svg+xml</dc:format>
        <dc:type
           rdf:resource="http://purl.org/dc/dcmitype/StillImage" />
        <dc:title></dc:title>
      </cc:Work>
    </rdf:RDF>
  </metadata>
  <g
     inkscape:label="Layer 1"
     inkscape:groupmode="layer"
     id="layer1"
     transform="translate(-51.706934,-84.031776)">
    <g
       id="g999"
       transform="matrix(1.1646853,0,0,1.1646853,-5.0839761,-41.756243)">
      <path
         inkscape:connector-curvature="0"
         id="path944"
         d="m 91.138908,155.74805 c -1.737254,6.41447 -4.810852,8.41899 -7.483549,10.15625 -2.672693,1.73725 -6.949006,6.28083 -7.483546,8.81989 -0.534538,2.53906 1.33635,11.35895 2.138156,13.63075 0.801809,2.27179 1.603618,6.1472 0.801809,7.34991 -0.801809,1.20271 -1.202714,2.00452 -3.34087,1.60361 -2.138156,-0.4009 -2.490777,-2.59827 -2.632516,-3.30697 -0.14174,-0.70871 -0.566965,-1.65365 -0.236236,-2.03163 0.330729,-0.37797 1.181176,0.37798 0.803201,-0.94494 -0.377976,-1.32291 -1.086684,-4.53571 -1.46466,-6.00037 -0.377975,-1.46466 -0.897691,-4.58296 -1.370163,-5.38616 -0.472469,-0.8032 -0.236236,-2.03162 -0.472469,-3.96875 -0.236236,-1.93713 -0.992188,-3.59077 -0.708705,-4.63021 0.28348,-1.03943 3.449032,-4.11049 4.441219,-5.5279 0.992188,-1.41741 3.023809,-8.7407 2.456844,-10.67783 -0.566962,-1.93712 -1.322917,-6.09486 -1.795386,-6.42559 -0.472469,-0.33073 16.346871,7.33994 16.346871,7.33994 z"
         style="fill:url(#linearGradient1129);stroke:#000000;stroke-width:0.26458332px;stroke-linecap:butt;stroke-linejoin:miter;stroke-opacity:1" />
      <path
         id="path840"
         d="m 129.81895,130.47162 c -0.087,-0.002 -0.17357,0.004 -0.25993,0.0196 -2.2718,0.4009 -3.07362,4.74401 -3.34089,6.48126 -0.26727,1.73725 -0.33424,5.74627 0.73484,7.81761 0.17902,0.34684 0.30115,0.70416 0.37776,1.03456 0.31431,-0.0344 0.70132,-0.10663 0.92139,-0.27491 0.4016,-0.30711 0.25993,-1.62988 0.25993,-1.62988 v -0.66197 c 0,-0.66145 -0.56713,-2.4567 -0.61443,-3.11816 -0.11812,-0.61421 -0.51976,-0.94501 -0.59066,-1.25212 -0.0709,-0.3071 0.16536,-1.86611 0.16536,-2.78743 0,-0.92132 0.49624,-2.07902 1.01596,-3.16569 0.51972,-1.0867 1.25204,0.2366 1.98437,1.63039 0.73233,1.39378 1.72474,2.43314 2.26808,3.37809 0.54334,0.94493 -1.37046,2.78743 -1.37046,3.77961 0,0.99219 1.48836,1.72445 2.07895,1.88981 0.59058,0.16537 1.18139,-0.54306 1.93735,-1.93684 l 0.21652,-0.3514 c -0.0361,-0.0709 -0.0735,-0.14283 -0.0977,-0.20929 -0.26727,-0.735 -1.99292,-6.11842 -2.53886,-7.48326 -0.50113,-1.25283 -1.84323,-3.13106 -3.14761,-3.16002 z"
         style="fill:#59493c;fill-opacity:1;stroke:#000000;stroke-width:0.26458332px;stroke-linecap:butt;stroke-linejoin:miter;stroke-opacity:1"
         inkscape:connector-curvature="0" />
      <path
         id="path816"
         d="m 105.37083,161.42735 c 0,0 -2.20493,5.8799 -2.4722,6.48126 -0.26727,0.60135 -1.13585,19.17692 -1.13585,19.71146 0,0.53454 -0.73484,1.06919 -0.73484,1.06919 -0.98231,0.18616 -0.67534,0.16255 -1.076936,0.87126 -0.4016,0.7087 -1.039214,1.15726 -1.866037,0.94464 -0.826823,-0.2126 -2.008145,-0.30695 -2.669604,0.18914 -0.661458,0.4961 -1.440889,0.56712 -1.960604,1.18132 -0.519716,0.61421 -1.27567,1.22828 -1.653646,1.29915 -0.377976,0.0709 -0.425519,3.47244 -0.212905,3.85041 0.212611,0.37798 0.921316,1.29922 1.157552,1.39371 0.236233,0.0945 0.897691,0.51987 1.322917,0.3545 0.425219,-0.16536 1.842706,-1.39363 2.244306,-1.62987 0.401601,-0.23623 2.055466,-1.15755 2.764171,-1.48828 0.708705,-0.33073 2.858516,-0.92154 3.236496,-1.11053 0.37797,-0.18899 2.72335,-1.17822 2.72335,-1.17822 0,0 0.80197,-0.66844 1.26969,-1.6707 0.46772,-1.00226 4.00895,-25.12339 4.27622,-29.19925 z"
         style="fill:url(#linearGradient1141);stroke:#000000;stroke-width:0.26458332px;stroke-linecap:butt;stroke-linejoin:miter;stroke-opacity:1"
         inkscape:connector-curvature="0" />
      <path
         id="path946"
         d="m 74.782515,148.39818 c -0.0011,0.001 0.0019,0.005 0.0093,0.01 0.472469,0.33073 1.228796,4.48833 1.795756,6.42545 0.566965,1.93713 -1.465024,9.26049 -2.457214,10.6779 -0.992185,1.41741 -4.157591,4.4884 -4.441071,5.52783 -0.283483,1.03944 0.472765,2.69359 0.709001,4.63072 0.236231,1.93713 -1.48e-4,3.16555 0.472321,3.96875 0.370681,0.63016 0.769332,2.67696 1.106911,4.24057 0.231539,0.0965 0.416766,0.0817 0.499192,-0.13022 0.330729,-0.85045 0,-0.89762 0,-2.882 0,-1.98437 -0.235866,-5.52819 0.14211,-6.66212 0.377981,-1.13393 0.992114,-2.50373 2.220537,-4.15737 1.228423,-1.65365 3.023589,-1.60654 5.338694,-2.50424 2.315104,-0.89769 4.252232,-2.88229 6.283854,-4.58319 2.031621,-1.70089 2.031989,-2.92894 4.11086,-6.14174 l 0.238744,0.0377 c 0.113615,-0.35436 0.223279,-0.72265 0.327628,-1.10794 0,0 -16.297984,-7.43313 -16.356623,-7.34994 z"
         style="fill:url(#linearGradient1153);stroke:#000000;stroke-width:0.26458332px;stroke-linecap:butt;stroke-linejoin:miter;stroke-opacity:1"
         inkscape:connector-curvature="0" />
      <path
         inkscape:connector-curvature="0"
         id="path1421"
         d="m 79.312232,152.27354 c 0.267269,6.81537 -1.469983,8.75308 -2.939965,10.55715 -1.469983,1.80407 -5.746295,5.74629 -6.614922,7.61718 -0.868625,1.87088 -1.536798,5.87993 -2.338607,7.01582 -0.80181,1.1359 2.204974,13.76438 2.204974,13.76438 0,0 1.069078,0.66818 1.5368,1.20272 0.46772,0.53454 1.46998,3.07359 1.46998,3.07359 l 0.868627,2.07135 -1.069078,-0.66818 -0.06682,0.60136 c 0,0 -1.737251,-0.46772 -2.338607,-0.46772 -0.601358,0 -2.204974,0 -2.204974,0 v -2.20498 l -0.734991,-1.00226 0.467722,3.00678 -1.870887,-0.86862 -1.5368,-0.0668 0.935442,-1.67043 -1.069078,-0.46773 c 0,0 0.133636,-0.46772 0,-1.67043 -0.133633,-1.20271 -1.46998,-14.36574 -1.670434,-14.69982 -0.200451,-0.33409 0,-0.20046 -0.400904,-1.06908 -0.400905,-0.86863 -0.133633,-1.93771 -0.133633,-2.40543 0,-0.46772 0.467719,-1.06908 1.269529,-2.40542 0.801809,-1.33635 2.605878,-4.27632 2.338609,-5.34539 -0.267271,-1.06908 -3.073601,-35.68049 -3.073601,-35.68049 l 0.801809,-3.54132 2.605879,-4.27631 4.075859,-2.93996 5.011303,12.16076 c 0,0 -0.267269,-2.47224 -0.46772,1.60362 -0.200453,4.07586 0.601356,9.2208 1.937703,12.62848 1.336347,3.40769 3.006783,6.1472 3.006783,6.1472 z"
         style="fill:url(#linearGradient1141);stroke:#000000;stroke-width:0.26458332px;stroke-linecap:butt;stroke-linejoin:miter;stroke-opacity:1" />
      <path
         inkscape:connector-curvature="0"
         id="path876-6"
         d="m 65.998909,195.19754 c 0.546616,0.54774 0.9141,0.73527 1.070284,1.08985 0.156194,0.35459 -0.291664,1.4852 -0.291664,1.4852 0,0 0.05507,-0.52163 -0.26209,-1.01303 -0.31719,-0.49141 -0.829184,-0.98201 -0.829184,-0.98201 z"
         style="fill:url(#linearGradient1391);fill-opacity:1;stroke:#000000;stroke-width:0.26458332px;stroke-linecap:butt;stroke-linejoin:miter;stroke-opacity:1" />
      <path
         inkscape:connector-curvature="0"
         id="path1017"
         d="m 104.51042,163.10193 c -3.02381,-1.6064 -0.61422,-1.37016 -4.20499,-2.97656 -3.590775,-1.6064 -6.000372,-0.61421 -7.795758,-1.74814 -1.795388,-1.13393 -0.708707,-2.36235 -2.834822,-2.74033 -2.126115,-0.37797 -4.393973,-0.66146 -5.008184,-1.55915 -0.614212,-0.89769 -0.850448,-1.37016 -2.598587,-1.46466 -1.748139,-0.0945 -0.661458,-1.18117 -2.787573,-1.18117 -2.126118,0 0.09449,1.79539 -3.212799,-2.12612 -3.307291,-3.9215 -4.110492,-11.29204 -4.252232,-13.3709 -0.14174,-2.07887 9.591146,3.44903 12.000743,4.91369 2.4096,1.46465 22.442332,11.10305 23.245532,14.36309 0.8032,3.26005 -2.55133,7.89025 -2.55133,7.89025 z"
         style="fill:url(#linearGradient1147);stroke:#000000;stroke-width:0.26458332px;stroke-linecap:butt;stroke-linejoin:miter;stroke-opacity:1" />
      <path
         sodipodi:nodetypes="ccsccccscsscc"
         inkscape:connector-curvature="0"
         id="path820"
         d="m 103.21517,155.35539 c 1.22842,2.17336 0.66146,5.66964 0.66146,5.66964 0,0 -1.22842,-0.94494 -2.64583,-0.94494 -1.417411,0 -2.267856,1.22843 -3.874255,-0.0945 -1.606399,-1.32292 -2.267857,0.37798 -3.96875,-1.51191 -1.700892,-1.88988 -9.260416,-8.97693 -10.205357,-9.54389 -0.944941,-0.56697 -5.575149,-3.87426 -6.614583,-5.85864 -1.039435,-1.98437 -2.55134,-5.48065 -3.307292,-7.843 -0.755952,-2.36235 -0.755952,-3.87426 -0.755952,-3.87426 0,0 1.511904,0 2.173362,0.0945 0.661458,0.0945 10.016369,-1.70089 13.890625,1.32292 3.874257,3.02381 14.268602,6.2366 15.024552,11.81175 z"
         style="fill:url(#linearGradient1141);fill-opacity:1;stroke:#000000;stroke-width:0.26458332px;stroke-linecap:butt;stroke-linejoin:miter;stroke-opacity:1" />
      <path
         sodipodi:nodetypes="czsccc"
         inkscape:connector-curvature="0"
         id="path1019"
         d="m 99.758351,151.27666 c -6.214018,0.4009 -11.455583,-0.59407 -15.306553,-3.00678 -3.85097,-2.41271 -8.079531,-5.55122 -8.814523,-10.96342 -0.734991,-5.41221 0.06682,-7.08265 0.06682,-7.08265 l 27.796025,14.16529 c 0,0 2.47225,5.8853 -3.741767,6.88756 z"
         style="fill:url(#linearGradient1135);stroke:#000000;stroke-width:0.26458332px;stroke-linecap:butt;stroke-linejoin:miter;stroke-opacity:1" />
      <path
         inkscape:connector-curvature="0"
         id="path878-2"
         d="m 68.396806,196.04704 c 0,0 1.15755,0.3071 1.37016,0.49609 0.21261,0.18899 0.92132,0.94494 0.99219,1.13393 0.0709,0.18899 0.0945,0.61421 0.0945,0.61421 0,0 0.30711,-0.75595 0.21261,-1.08668 -0.0945,-0.33073 -0.49609,-1.08668 -0.89769,-1.44103 -0.4016,-0.35436 -1.25204,-0.56697 -1.25204,-0.56697 z"
         style="fill:url(#linearGradient1391);fill-opacity:1;stroke:#000000;stroke-width:0.26458332px;stroke-linecap:butt;stroke-linejoin:miter;stroke-opacity:1" />
      <path
         inkscape:connector-curvature="0"
         id="path882-3-2"
         d="m 69.100678,196.51234 c 0.337823,0.27481 0.509487,0.46917 0.443864,0.79595 -0.06566,0.32677 -0.307064,0.97464 -0.307064,0.97464 0,0 -0.01648,-0.41649 -0.146968,-0.73408 -0.13049,-0.3176 -0.524362,-0.55509 -0.524362,-0.55509 z"
         style="fill:url(#linearGradient1391);fill-opacity:1;stroke:#000000;stroke-width:0.26458332px;stroke-linecap:butt;stroke-linejoin:miter;stroke-opacity:1" />
      <path
         inkscape:connector-curvature="0"
         id="path882-9"
         d="m 72.454139,196.15925 c 0.40751,0.15356 0.63193,0.28349 0.67327,0.61422 0.0413,0.33073 0.0177,1.02171 0.0177,1.02171 0,0 -0.14765,-0.38979 -0.372069,-0.64964 -0.224431,-0.25986 -0.67327,-0.36026 -0.67327,-0.36026 z"
         style="fill:url(#linearGradient1391);fill-opacity:1;stroke:#000000;stroke-width:0.26458332px;stroke-linecap:butt;stroke-linejoin:miter;stroke-opacity:1" />
      <path
         sodipodi:nodetypes="cscccc"
         inkscape:connector-curvature="0"
         id="path880-1"
         d="m 71.373363,196.16516 c 0.51972,0.37797 0.68509,0.21261 0.68509,0.82682 0,0.61421 -0.14175,1.25205 -0.14175,1.25205 l -0.25986,-1.13393 c 0,0 -0.21261,-0.21261 -0.44884,-0.35435 -0.23624,-0.14175 0.16536,-0.59059 0.16536,-0.59059 z"
         style="fill:url(#linearGradient1391);fill-opacity:1;stroke:#000000;stroke-width:0.26458332px;stroke-linecap:butt;stroke-linejoin:miter;stroke-opacity:1" />
      <path
         sodipodi:nodetypes="cccsccccccccccssscccccccc"
         inkscape:connector-curvature="0"
         id="path1423"
         d="m 67.347311,177.63722 -0.864032,1.16272 c 0,0 -1.71714,5.39387 -2.898013,9.26248 0.158809,1.51827 0.390692,3.7183 0.425813,4.03438 0.133636,1.20271 0,1.67018 0,1.67018 l 1.069186,0.46767 -0.935344,1.6707 1.53634,0.0667 0.622036,-0.51065 1.249169,1.37933 -0.467672,-3.00653 0.734838,1.00201 v 2.20503 l 1.279141,-0.41105 0.925893,0.41105 c 0.160777,0.0714 -0.141597,-0.84586 0.156758,-0.78924 0.30969,0.0588 0.365596,0.41673 0.773515,0.67138 0.542562,0.33871 0.463145,-0.61927 0.463145,-0.61927 l 1.012119,0.98126 0.0583,-1.13378 1.305661,0.72709 -0.525624,-1.69322 c 0,0 -1.640308,-2.22025 -2.108031,-2.75479 -0.46772,-0.53454 -1.536856,-1.20251 -1.536856,-1.20251 0,0 -2.789693,-11.71892 -2.276345,-13.5909 z"
         style="fill:url(#linearGradient1135);stroke:#000000;stroke-width:0.26458332px;stroke-linecap:butt;stroke-linejoin:miter;stroke-opacity:1" />
      <path
         inkscape:connector-curvature="0"
         id="path872"
         d="m 116.67652,209.71112 c 0.66146,0.37798 0.96857,0.66146 2.26786,0.66146 1.29929,0 3.00019,-0.47247 3.77976,-0.28348 0.77958,0.18899 1.98438,1.13393 2.29148,0.35435 0.30711,-0.77958 1.11031,-2.03162 0.4961,-2.36235 -0.61421,-0.33073 -4.46485,-2.97656 -4.46485,-2.97656 l -3.77976,3.02381 z"
         style="fill:#2b281f;fill-opacity:1;stroke:#000000;stroke-width:0.26458332px;stroke-linecap:butt;stroke-linejoin:miter;stroke-opacity:1" />
      <path
         inkscape:connector-curvature="0"
         id="path870"
         d="m 111.1173,191.12786 c 0.93545,1.9377 1.57021,3.94222 1.77066,5.07812 0.20046,1.13589 1.5034,6.01356 2.23839,7.3165 0.73499,1.30294 1.83748,4.47677 1.23612,4.71063 -0.60136,0.23386 -1.16931,0.36749 -1.16931,0.36749 0,0 0.93545,0.3675 0.63477,0.53454 -0.30068,0.16704 -0.33409,0.50113 -0.33409,0.50113 0,0 1.00226,0.46772 1.20271,0.23386 0.20046,-0.23386 0.90204,-0.33408 1.06908,-0.73499 0.16705,-0.4009 0.16705,-0.63476 0.16705,-0.63476 0,0 0.26727,0.70158 0.43431,1.06907 0.16704,0.3675 0.90203,-0.30068 0.90203,-0.30068 l 0.23386,-8.0849 -0.90203,-4.6104 v -3.27405 l -1.1693,-3.54132 z"
         style="fill:url(#linearGradient1141);fill-opacity:1;stroke:#000000;stroke-width:0.26458332px;stroke-linecap:butt;stroke-linejoin:miter;stroke-opacity:1" />
      <path
         inkscape:connector-curvature="0"
         id="path876"
         d="m 119.34598,208.62444 c 0.66146,0.4016 1.06306,0.49609 1.29929,0.8032 0.23624,0.30711 0.0709,1.5119 0.0709,1.5119 0,0 -0.0709,-0.51971 -0.49609,-0.92131 -0.42522,-0.4016 -1.03943,-0.75596 -1.03943,-0.75596 z"
         style="fill:url(#linearGradient1391);fill-opacity:1;stroke:#000000;stroke-width:0.26458332px;stroke-linecap:butt;stroke-linejoin:miter;stroke-opacity:1" />
      <path
         inkscape:connector-curvature="0"
         id="path878"
         d="m 122.08631,209.02604 c 0,0 1.15755,0.3071 1.37016,0.49609 0.21261,0.18899 0.92132,0.94494 0.99219,1.13393 0.0709,0.18899 0.0945,0.61421 0.0945,0.61421 0,0 0.30711,-0.75595 0.21261,-1.08668 -0.0945,-0.33073 -0.49609,-1.08668 -0.89769,-1.44103 -0.4016,-0.35436 -1.25204,-0.56697 -1.25204,-0.56697 z"
         style="fill:url(#linearGradient1391);fill-opacity:1;stroke:#000000;stroke-width:0.26458332px;stroke-linecap:butt;stroke-linejoin:miter;stroke-opacity:1" />
      <path
         inkscape:connector-curvature="0"
         id="path882"
         d="m 125.71842,208.76027 c 0.40751,0.15356 0.63193,0.28349 0.67327,0.61422 0.0413,0.33073 0.0177,1.02171 0.0177,1.02171 0,0 -0.14765,-0.38979 -0.37207,-0.64964 -0.22443,-0.25986 -0.67327,-0.36026 -0.67327,-0.36026 z"
         style="fill:url(#linearGradient1391);fill-opacity:1;stroke:#000000;stroke-width:0.26458332px;stroke-linecap:butt;stroke-linejoin:miter;stroke-opacity:1" />
      <path
         sodipodi:nodetypes="cscccc"
         inkscape:connector-curvature="0"
         id="path880"
         d="m 124.94475,209.21503 c 0.51972,0.37797 0.68509,0.21261 0.68509,0.82682 0,0.61421 -0.14175,1.25205 -0.14175,1.25205 l -0.25986,-1.13393 c 0,0 -0.21261,-0.21261 -0.44884,-0.35435 -0.23624,-0.14175 0.16536,-0.59059 0.16536,-0.59059 z"
         style="fill:url(#linearGradient1391);fill-opacity:1;stroke:#000000;stroke-width:0.26458332px;stroke-linecap:butt;stroke-linejoin:miter;stroke-opacity:1" />
      <path
         inkscape:connector-curvature="0"
         id="path882-3"
         d="m 122.30615,209.0939 c 0.40751,0.15356 0.63193,0.28349 0.67327,0.61422 0.0413,0.33073 0.0177,1.02171 0.0177,1.02171 0,0 -0.14765,-0.38979 -0.37207,-0.64964 -0.22443,-0.25986 -0.67327,-0.36026 -0.67327,-0.36026 z"
         style="fill:url(#linearGradient1391);fill-opacity:1;stroke:#000000;stroke-width:0.26458332px;stroke-linecap:butt;stroke-linejoin:miter;stroke-opacity:1" />
      <path
         sodipodi:nodetypes="cccsccssccscccccscccccccscscccssccc"
         inkscape:connector-curvature="0"
         id="path868"
         d="m 119.66993,164.63477 c -0.56795,1.20271 -0.83522,1.97111 -1.70384,2.57246 -0.86863,0.60136 -3.87541,2.3052 -4.10927,2.80633 -0.23386,0.50114 0.93544,8.95353 1.20271,10.08943 0.26727,1.1359 1.10249,2.57247 1.23612,3.17382 0.13364,0.60136 1.00226,4.2095 1.36976,5.94675 0.36749,1.73725 0.90203,3.0736 1.1693,3.87541 0.26727,0.80181 0.26727,2.53906 0.26727,3.77518 0,1.23612 0.56795,1.83748 1.00226,3.04019 0.43432,1.20271 1.20271,3.64155 1.43658,4.30972 0.23386,0.66818 1.23612,1.5368 1.67043,1.63703 0.43431,0.10023 0.83522,0.66817 1.40316,1.23612 0.56795,0.56795 2.37202,0.26727 2.17157,0.96885 -0.20045,0.70159 -2.03793,1.36976 -2.40543,1.10249 -0.36749,-0.26727 -1.80406,-1.03567 -1.50339,-0.53454 0.30068,0.50113 0.80181,0.93544 0.80181,0.93544 0,0 -1.03567,-0.16704 -1.30294,-0.63476 -0.26727,-0.46772 -0.23386,0.36749 0,0.60136 0.23386,0.23386 -0.63476,-0.0334 -0.7684,-0.93545 -0.13363,-0.90203 0.0334,1.00226 0.0334,1.00226 -1.53166,-2.63446 -0.72749,-0.6514 -1.57022,-0.83521 -0.20045,0.23386 -0.53454,-0.0334 -0.53454,-0.0334 0,0 -0.13363,0.4009 -0.0668,0.63476 0.0668,0.23386 0.16704,0.83522 0.16704,0.83522 0,0 -0.63476,-0.66817 -0.63476,-0.90204 0,-0.23386 -0.70159,-0.96885 -0.70159,-0.96885 0,0 0.43432,-0.7684 0.43432,-1.20271 0,-0.43431 -0.46773,-1.10249 -0.46773,-1.10249 0,0 0.83522,-0.73499 0.70159,-1.33635 -0.13364,-0.60135 -1.23613,-2.80633 -1.30294,-4.34313 -0.0668,-1.53679 0.33409,-3.37427 0.50113,-3.97563 0.16704,-0.60136 -0.10023,-3.0736 -0.33409,-4.54358 -0.23386,-1.46998 -6.44788,-14.73323 -6.44788,-14.73323 l -0.43431,-8.11831 z"
         style="fill:url(#linearGradient1129);fill-opacity:1;stroke:#000000;stroke-width:0.26458332px;stroke-linecap:butt;stroke-linejoin:miter;stroke-opacity:1" />
      <path
         id="path952"
         d="m 108.80989,174.1103 -2.3151,0.94516 c -0.42522,3.40178 -2.0314,8.22113 -2.0314,9.78028 0,1.55915 -0.18906,3.82687 0.23616,4.7718 0.42523,0.94495 0.99226,1.98423 0.75603,2.4567 -0.1482,0.29639 -0.94663,1.09448 -1.2883,1.67174 0.40062,-0.17031 0.86972,-0.36949 0.86972,-0.36949 0,0 0.80197,-0.66844 1.26969,-1.6707 0.27308,-0.58517 1.58818,-9.03613 2.69337,-16.79226 z"
         style="fill:url(#linearGradient1135);stroke:#000000;stroke-width:0.26458332px;stroke-linecap:butt;stroke-linejoin:miter;stroke-opacity:1"
         inkscape:connector-curvature="0" />
      <path
         sodipodi:nodetypes="csssscscccc"
         inkscape:connector-curvature="0"
         id="path866"
         d="m 105.20396,169.7463 c 0.86863,2.07133 1.26416,4.00903 1.33098,6.14719 0.031,0.99075 -0.23661,3.46634 0.42424,6.06734 0.76534,3.01226 2.50231,6.19272 3.02223,7.42977 0.96885,2.3052 2.40542,3.64155 4.04245,4.64381 1.63703,1.00226 2.43883,0.7684 2.97337,0.63477 0.53454,-0.13364 0.66818,-3.04019 0.33409,-5.07812 -0.33409,-2.03793 -1.36976,-4.40995 -2.00452,-5.44562 -0.63477,-1.03567 -2.23838,-5.57925 -2.67269,-7.81763 -0.43432,-2.23838 -0.43432,-3.50792 -0.43432,-3.50792 z"
         style="fill:url(#linearGradient1135);fill-opacity:1;stroke:#000000;stroke-width:0.26458332px;stroke-linecap:butt;stroke-linejoin:miter;stroke-opacity:1" />
      <path
         sodipodi:nodetypes="cscszzccccccc"
         inkscape:connector-curvature="0"
         id="path883"
         d="m 102.47879,146.51823 c 0,0 -0.51971,1.6064 -0.51971,2.55134 0,0.94494 -0.37798,3.07105 0.0945,4.58296 0.47247,1.5119 1.55915,3.44903 1.55915,5.10268 0,1.65364 0.37797,3.25982 0.54335,5.62239 0.16538,2.36257 0.36541,2.6929 0.77957,4.45539 0.41415,1.7625 1.22842,2.47103 2.59858,3.13249 1.37017,0.66146 4.63021,0.91659 4.63021,0.91659 0,0 -0.18899,-1.98438 0.18899,-2.5041 0.37798,-0.51971 1.08668,-0.99218 1.08668,-0.99218 l 0.85045,-6.61459 -5.95313,-22.15885 z"
         style="fill:url(#linearGradient1141);fill-opacity:1;stroke:#000000;stroke-width:0.26458332px;stroke-linecap:butt;stroke-linejoin:miter;stroke-opacity:1" />
      <path
         inkscape:connector-curvature="0"
         id="path869"
         d="m 105.47124,147.4627 3.57473,4.34313 2.40542,1.23612 0.56795,-12.72871 -5.51243,1.10249 -1.93771,5.7797 z"
         style="fill:url(#linearGradient1135);fill-opacity:1;stroke:#000000;stroke-width:0.26458332px;stroke-linecap:butt;stroke-linejoin:miter;stroke-opacity:1" />
      <path
         sodipodi:nodetypes="csscccc"
         inkscape:connector-curvature="0"
         id="path867"
         d="m 107.77643,155.28033 c 0,0 -0.47477,-2.52438 -1.09711,-4.2429 -0.51539,-1.4232 -1.20808,-3.70837 -1.2749,-3.70837 -0.0668,0 3.67496,3.04019 4.17608,4.00905 0.50114,0.96885 7.41673,9.65511 7.41673,9.65511 l -6.01356,0.43431 z"
         style="fill:url(#linearGradient1153);fill-opacity:1;stroke:#000000;stroke-width:0.26458332px;stroke-linecap:butt;stroke-linejoin:miter;stroke-opacity:1" />
      <path
         inkscape:connector-curvature="0"
         id="path863"
         d="m 121.8749,162.76388 c -1.06908,0.13363 -1.67043,0.56795 -1.67043,0.56795 0,0 -3.40769,-2.23839 -4.64381,-3.57473 -1.23612,-1.33635 -4.6104,-4.64381 -5.47902,-7.81764 -0.86863,-3.17382 -1.03567,-6.5481 -0.66818,-7.48354 0.3675,-0.93545 1.20271,-1.80407 1.20271,-1.80407 l 7.34992,2.77292 5.47902,17.07184 z"
         style="fill:url(#linearGradient1147);fill-opacity:1;stroke:#000000;stroke-width:0.26458332px;stroke-linecap:butt;stroke-linejoin:miter;stroke-opacity:1" />
      <path
         inkscape:connector-curvature="0"
         id="path861"
         d="m 128.67727,162.74758 c -2.008,0 -6.77995,0.0472 -6.77995,0.0472 0,0 -1.48828,-2.62221 -1.84263,-3.56715 -0.35436,-0.94494 -1.13393,-3.63802 -1.13393,-3.63802 z"
         style="fill:url(#linearGradient1135);fill-opacity:1;stroke:#000000;stroke-width:0.26458332px;stroke-linecap:butt;stroke-linejoin:miter;stroke-opacity:1" />
      <path
         inkscape:connector-curvature="0"
         id="path859"
         d="m 139.34765,165.67043 c -1.03567,-0.63476 -2.57247,-0.66817 -2.57247,-0.66817 0,0 0.26727,-0.16704 0,-0.50113 -0.26727,-0.33408 -0.93544,-0.96885 -1.73725,-1.1693 -0.80181,-0.20045 -4.40995,0.13363 -6.38106,-0.56795 -1.97111,-0.70158 -7.41673,-3.44109 -9.08717,-5.21176 -1.67043,-1.77066 -0.56794,-3.77518 -0.56794,-3.77518 l 9.15398,-2.80633 13.02939,12.86235 z"
         style="fill:url(#linearGradient1153);fill-opacity:1;stroke:#000000;stroke-width:0.26458332px;stroke-linecap:butt;stroke-linejoin:miter;stroke-opacity:1" />
      <path
         inkscape:connector-curvature="0"
         id="path857"
         d="m 145.82893,168.00904 c -0.70158,0.33409 -3.80859,0.23386 -5.11153,-0.90203 -1.30293,-1.1359 -2.00452,-2.57247 -2.50565,-2.93997 -0.50113,-0.36749 -2.93996,-1.67043 -2.93996,-1.67043 l 10.25647,-1.57021 1.26952,6.44788 z"
         style="fill:url(#linearGradient1391);fill-opacity:1;stroke:#000000;stroke-width:0.26458332px;stroke-linecap:butt;stroke-linejoin:miter;stroke-opacity:1" />
      <path
         id="path1679"
         d="m 133.61458,136.09557 0.25735,1.39578 a 12.154445,13.357158 0 0 0 -8.6496,12.77751 12.154445,13.357158 0 0 0 12.1543,13.35733 12.154445,13.357158 0 0 0 5.01623,-1.20872 c 0.67414,0.98331 1.4832,1.74705 1.80505,1.96009 0.5668,0.37517 2.93243,2.13707 3.87419,1.98438 0.94176,-0.15269 0.18921,-3.40179 -0.047,-4.63021 -0.10526,-0.54734 -0.61561,-1.86277 -1.14721,-3.15433 a 12.154445,13.357158 0 0 0 2.65306,-8.30854 12.154445,13.357158 0 0 0 -12.15429,-13.35681 12.154445,13.357158 0 0 0 -0.83096,0.032 c -1.46321,-0.50754 -2.93109,-0.84852 -2.93109,-0.84852 z"
         style="opacity:1;fill:url(#linearGradient1135);fill-opacity:1;stroke:#4a3730;stroke-width:0.27722105;stroke-miterlimit:4;stroke-dasharray:none;stroke-dashoffset:0;stroke-opacity:1"
         inkscape:connector-curvature="0" />
      <path
         sodipodi:nodetypes="scsccscccccsccs"
         inkscape:connector-curvature="0"
         id="path858"
         d="m 128.91461,132.53454 c -0.15318,0.007 -0.2964,0.1283 -0.42633,0.39998 -0.51972,1.08667 -1.01596,2.24438 -1.01596,3.1657 0,0.92132 -0.23626,2.48032 -0.16536,2.78743 0.0709,0.30711 0.47254,0.63791 0.59066,1.25211 0.0473,0.66147 0.61443,2.45671 0.61443,3.11816 v 0.66198 c 0,0 0.14167,1.32276 -0.25993,1.62987 -0.0839,0.0641 -0.19559,0.11092 -0.31471,0.15038 0.94167,0.38084 4.64466,-1.55019 5.59449,-2.07223 -0.0276,-0.004 -0.0551,-0.008 -0.0827,-0.0155 -0.59059,-0.16536 -2.07895,-0.89762 -2.07895,-1.88981 0,-0.99218 1.9138,-2.83468 1.37046,-3.77961 -0.54334,-0.94495 -1.53575,-1.98431 -2.26808,-3.37809 -0.54924,-1.04534 -1.09849,-2.05131 -1.55804,-2.03037 z"
         style="fill:#252016;fill-opacity:1;stroke:#000000;stroke-width:0.26458332px;stroke-linecap:butt;stroke-linejoin:miter;stroke-opacity:1" />
      <path
         id="path1460"
         d="m 69.82416,119.73326 -4.075718,2.94039 -2.606043,4.27622 -0.802018,3.54139 c 0,0 0.174696,2.14491 0.383955,4.70307 l 10.306865,15.14171 3.207554,1.13585 c 0.790943,0.12169 1.693902,0.90433 3.00912,0.69091 -0.174551,-0.29003 -1.682824,-2.82425 -2.942455,-6.03632 -1.33635,-3.40768 -2.138321,-8.55283 -1.937867,-12.62869 0.06737,-1.36981 0.142095,-1.99062 0.211873,-2.22363 z m 4.755266,11.5409 0.255799,0.62011 c 0,0 -0.117951,-1.08044 -0.255799,-0.62011 z"
         style="fill:url(#linearGradient1147);stroke:#000000;stroke-width:0.26458332px;stroke-linecap:butt;stroke-linejoin:miter;stroke-opacity:1"
         inkscape:connector-curvature="0" />
      <path
         inkscape:connector-curvature="0"
         id="path1616"
         d="m 73.988839,131.80077 c -1.086681,0.0236 -1.41741,0.0945 -2.078868,-0.42522 -0.661461,-0.51972 -1.700895,-1.13393 -1.346541,-1.46466 0.354351,-0.33073 0.236235,-0.56696 -0.259858,-0.51972 -0.496094,0.0473 -1.228424,-0.0236 -1.346542,-0.4016 -0.118118,-0.37797 0.04725,-0.87407 -0.377975,-0.87407 -0.425223,0 -0.685083,-0.33073 -0.685083,-0.61421 0,-0.28348 -0.614212,-0.37797 -0.614212,-0.73233 0,-0.35435 -0.401598,-0.0709 -0.54334,-0.75595 -0.14174,-0.68508 -0.944941,-0.92132 -0.944941,-0.92132 l 0.472471,-0.23623 -0.448847,-0.37798 v 0 c 0,0 0.614212,-0.18899 1.27567,-0.49609 0.661459,-0.30711 1.677268,-0.51972 1.677268,-0.51972 0,0 -0.472469,-0.37798 -1.110303,-0.37798 -0.637836,0 -1.488281,0 -1.488281,0 l 0.661458,-0.61421 -1.086683,0.25986 c 0,0 1.707915,-0.79089 1.908366,-1.2252 0.200453,-0.43432 1.269531,-1.1359 1.837478,-1.50339 0.567949,-0.3675 1.603618,-0.93545 2.238383,-1.16931 0.634764,-0.23386 5.378799,-1.20271 6.514695,-1.1359 1.135896,0.0668 3.340867,-0.33408 4.242903,-0.36749 0.902033,-0.0334 4.877668,0.73499 6.1472,1.00226 1.269529,0.26727 1.804069,0.96885 2.505651,1.06908 0.701583,0.10022 3.006781,-0.26727 3.841999,0.30068 0.835218,0.56794 3.140416,2.3386 3.841999,2.3386 0.701582,0 2.071344,-0.20045 2.806334,-0.16704 0.73499,0.0334 1.9377,1.10249 2.60587,1.1693 0.66818,0.0668 2.3052,-0.43431 3.20724,-0.13363 0.90203,0.30068 2.3052,0.66818 3.17383,0.70158 0.86862,0.0334 4.57699,1.1359 5.54584,1.5368 0.96885,0.40091 3.44109,1.77067 3.44109,1.77067 l -0.20045,-1.10249 h 2.20497 c 0,0 1.30294,1.13589 1.9043,2.03793 0.60136,0.90203 1.10249,2.07134 1.10249,2.07134 l -0.0334,-1.87089 2.23838,0.23386 c 0,0 0.30068,1.57021 0.30068,1.9377 0,0.3675 0,0.3675 0,0.3675 l 3.77518,2.3052 c 0,0 -3.27405,9.95579 -3.97563,13.02939 -0.70159,3.0736 -2.13816,8.88671 -2.13816,8.88671 l -3.97564,-0.60135 c 0,0 -0.4009,-0.0668 -0.93544,1.36975 -0.53454,1.43658 -0.46772,1.90429 -0.46772,1.90429 0,0 -2.97337,-1.23612 -3.80859,-2.03792 -0.83522,-0.80181 -3.47451,-4.10927 -3.60814,-7.18287 -0.13363,-3.0736 0.50113,-3.67496 -0.4009,-4.51017 -0.90204,-0.83522 -2.90656,-0.70159 -2.90656,-0.70159 0,0 -0.66817,0.30068 -1.33635,1.00226 -0.66817,0.70159 -2.57247,4.2095 -2.60587,5.01131 -0.0334,0.80181 -0.0334,0.50113 -0.0334,0.50113 l -1.5034,0.73499 c 0,0 -0.0668,-1.16931 0.0668,-1.70385 0.13364,-0.53453 0.33409,-1.06907 0.33409,-1.06907 l -6.61492,-5.61266 c 0,0 -0.567949,1.46998 -0.7684,3.14041 -0.200454,1.67044 -0.367496,2.57247 -0.367496,2.57247 l -0.968854,-0.80181 c 0,0 -0.267269,-1.57021 0.06682,-2.50565 0.334087,-0.93544 0.267269,-2.3052 -0.133633,-1.26953 -0.400905,1.03567 -0.935445,2.43884 -0.935445,3.0736 0,0.63477 -0.601356,-0.70158 -0.534538,-1.57021 0.06682,-0.86862 0.734992,-2.60587 0.23386,-2.17156 -0.501131,0.43431 -1.236123,2.67269 -1.236123,2.67269 0,0 -0.400901,-1.43657 -0.400901,-2.17156 0,-0.73499 0.768397,-3.4411 0,-2.33861 -0.768401,1.10249 -1.202714,2.10475 -1.202714,2.10475 l -1.00226,0.20045 0.668173,-1.40317 -1.302938,0.50114 -0.133636,-1.57021 -0.400904,1.13589 c 0,0 -0.06682,-1.73725 0.167044,-2.47224 0.23386,-0.73499 0.935443,-2.00452 0.935443,-2.00452 l -0.400905,-0.26727 c 0,0 -2.204974,3.60814 -2.57247,3.842 -0.367495,0.23386 0.935445,-2.17157 0.467723,-2.17157 -0.467723,0 -1.703843,1.80407 -1.703843,1.80407 0,0 0.634765,-2.67269 0.334087,-2.67269 -0.300678,0 -1.269532,1.5368 -1.703842,1.5368 -0.434314,0 -0.935445,-1.26953 -0.835219,-1.63703 0.100227,-0.3675 1.202712,-1.60362 0.634765,-1.77066 -0.567947,-0.16704 -2.037929,1.97111 -2.037929,1.97111 0,0 0.200451,-0.73499 0.567946,-1.50339 0.367496,-0.7684 -0.23386,0 -0.868624,0.16704 -0.634767,0.16705 -1.870887,-0.36749 -1.57021,-0.8018 0.300678,-0.43432 -0.734991,-1.40317 -1.302938,-1.26953 -0.567949,0.13363 -1.737254,0.0668 -1.135896,-0.23386 0.601356,-0.30068 1.135896,-0.7684 1.135896,-0.7684 0,0 -0.935445,0.33408 -1.737254,0.33408 -0.801806,0 -2.951374,-1.79731 -2.951374,-1.79731 z"
         style="fill:#2b281f;fill-opacity:1;stroke:#000000;stroke-width:0.26458332px;stroke-linecap:butt;stroke-linejoin:miter;stroke-opacity:1" />
      <path
         inkscape:connector-curvature="0"
         id="path1569"
         d="m 133.04762,143.73064 c 0,0 -0.28348,1.13393 -0.70871,0.75596 -0.42522,-0.37798 -0.89769,-0.94494 -1.46465,-0.94494 -0.56697,0 -0.94495,0.7087 -1.65365,0.42522 -0.70871,-0.28348 -3.16555,-1.74814 -3.16555,-1.74814 l 0.85045,-6.47284 1.55915,-4.72471 4.44122,2.69308 3.54352,7.84301 -2.69308,0.8032 z"
         style="fill:#2b281f;fill-opacity:1;stroke:#000000;stroke-width:0.26458332px;stroke-linecap:butt;stroke-linejoin:miter;stroke-opacity:1" />
      <path
         inkscape:connector-curvature="0"
         id="path1072"
         d="m 126.75257,131.09244 c 0,-0.40091 0.16705,-1.03567 0.0668,-1.36976 -0.10023,-0.33408 -0.43431,-1.20271 -0.43431,-1.20271 v 1.10249 h -0.43432 l -0.36749,-1.20272 -0.33409,0.90204 -0.43431,-0.93545 -0.3675,1.06908 c 0,0 -0.0668,-0.4009 -0.60135,-1.03567 -0.53454,-0.63476 -1.30294,-1.60361 -1.30294,-1.60361 l 0.23386,0.80181 c 0,0 -0.83522,-0.63477 -1.03567,-0.80181 -0.20045,-0.16705 -0.66817,-0.30068 -0.66817,-0.30068 l -0.26728,0.33409 c 0,0 1.23613,0.86862 1.53681,1.26952 0.30067,0.40091 0.36749,0.735 0.36749,0.735 0,0 -1.70384,-1.36976 -2.17156,-1.57021 -0.46773,-0.20045 -1.67044,-0.63477 -1.87089,-0.86863 -0.20045,-0.23386 -0.70158,-0.7684 -0.70158,-0.7684 l -0.50113,0.46772 -0.70158,-0.46772 0.33408,0.96885 -0.60136,0.20046 2.07134,1.46998 v -0.53454 h 0.40091 l 1.33635,1.20271 0.10022,-0.93544 1.00226,0.90203 0.33409,0.63477 0.63476,0.20045 0.7684,0.53454 h 0.83522 l 0.50115,0.70158 -0.50113,-0.20045 0.10023,0.40091 -1.57021,-0.50113 1.83748,1.36975 h -0.7684 l 0.73499,0.7684 0.13363,0.3675 0.66818,0.90203 -0.73499,0.40091 c 0,0 0.36749,0.83521 0.73499,1.20271 0.36749,0.36749 2.13815,0.30068 2.13815,0.30068 z"
         style="fill:url(#linearGradient1405);stroke:#000000;stroke-width:0.26458332px;stroke-linecap:butt;stroke-linejoin:miter;stroke-opacity:1" />
      <path
         sodipodi:nodetypes="cccssssssssccccccccccccccccccccccccccccccccccccccccc"
         inkscape:connector-curvature="0"
         id="path1543"
         d="m 129.81895,130.47162 c -0.087,-0.002 -0.17357,0.004 -0.25993,0.0196 -0.76038,0.13419 -1.35343,0.71429 -1.81953,1.48622 0.0852,0.0664 -1.57214,1.83655 -1.65958,3.98876 -0.0692,1.70395 -0.59923,4.35077 -0.32801,6.07035 0.36229,2.2969 1.57983,3.45811 1.70495,3.50242 0.0961,0.034 1.88675,-1.31128 1.76909,-3.00532 -0.0365,-0.52566 -2.45571,-0.42309 -2.3534,-1.1699 0.0766,-0.55877 1.78139,-0.70254 1.85212,-1.43447 0.0793,-0.82052 -1.22925,-1.00195 -1.18453,-1.41958 0.12599,-1.17664 0.38044,-2.28452 0.44418,-3.23047 0.1439,-2.13572 0.55144,-2.08467 0.55144,-2.08467 l 0.56696,0.75588 c 0,0 1.39372,1.18133 2.22054,1.01596 0.82683,-0.16536 1.13378,-0.59066 1.13378,-0.59066 0,0 -0.33081,1.01559 -1.25212,0.87385 -0.92132,-0.14175 -1.72444,-0.54312 -1.72444,-0.54312 0,0 0.14166,1.11016 0.40152,1.46451 0.33073,0.1181 1.55908,0.96857 2.3859,0.66146 0.82683,-0.30711 0.96894,-0.56689 0.96894,-0.56689 0,0 -0.0947,1.18124 -0.94517,1.08675 -0.85045,-0.0945 -1.48828,-0.44906 -1.48828,-0.44906 0,0 0.49603,0.87421 1.06299,0.85059 1.13393,0.0472 1.70119,-0.63769 1.70119,-0.63769 0,0 0.16537,0.63791 -0.33073,0.92139 -0.14174,0.16536 -0.75625,0.40124 -1.03973,0.35399 -0.28348,-0.0472 -1.22843,-0.33036 -1.32292,-0.51935 -0.0945,-0.18899 -1.03921,0.14159 -1.03921,0.14159 0,0 0.82681,0.75567 1.32291,0.94465 0.49609,0.18899 1.34654,0.2601 1.81901,0.0475 0.47248,-0.21261 0.87386,0.4253 0.37776,0.75603 -0.49609,0.33073 -0.75566,0.66115 -1.11001,0.61391 -0.35436,-0.0473 -1.60662,-0.2358 -1.93735,-0.25941 -0.33073,-0.0236 -0.14159,0.77928 -0.14159,0.77928 h 1.39371 c 0,0 -0.92154,0.28369 -1.27589,0.44906 -0.35436,0.16536 -0.61392,0.4961 -0.61392,0.4961 l 0.18862,1.08624 c 0,0 0.47255,-0.33073 0.92139,-0.4961 0.44885,-0.16536 -0.25993,0.40205 -0.25993,0.40205 0,0 1.15785,-0.1182 1.53582,-0.25994 0.37798,-0.14174 1.74822,-1.51205 1.74822,-1.51205 0,0 -1.46459,1.84248 -1.72444,2.29133 -0.25986,0.44885 0.56688,0.21291 0.56688,0.21291 0,0 0.0945,0.68485 0.33073,0.37775 0,0 0.94494,-1.15747 1.32292,-1.39371 0.37797,-0.23623 0.94487,0.28331 1.39371,-0.0238 0.13402,-0.0917 0.21785,-0.36529 0.27492,-0.69401 -0.2037,-0.19088 -0.37609,-0.4777 -0.46302,-0.71675 -0.26727,-0.73501 -1.99292,-6.11843 -2.53886,-7.48327 -0.50113,-1.25283 -1.84323,-3.13106 -3.14761,-3.16001 z"
         style="fill:url(#linearGradient1391);fill-opacity:1;stroke:#000000;stroke-width:0.26458332px;stroke-linecap:butt;stroke-linejoin:miter;stroke-opacity:1" />
      <path
         inkscape:connector-curvature="0"
         id="path5423"
         d="m 112.30618,129.95814 -1.46466,0.63783 v 0.99219 c 0,0 0.51971,-0.44885 1.1103,-0.44885 0.59059,0 1.22842,0 1.22842,0 z"
         style="fill:url(#linearGradient1405);stroke:#000000;stroke-width:0.26458332px;stroke-linecap:butt;stroke-linejoin:miter;stroke-opacity:1" />
      <path
         sodipodi:nodetypes="ccccssscc"
         inkscape:connector-curvature="0"
         id="path828"
         d="m 137.17608,140.44687 c -1.20271,-3.00678 -4.81085,-11.62622 -7.55036,-11.42576 -2.73951,0.20045 -5.61266,6.28083 -4.54359,14.29891 2.13816,6.08038 2.93997,3.54132 1.8709,1.46998 -1.06908,-2.07134 -1.00226,-6.08038 -0.73499,-7.81763 0.26727,-1.73725 1.06907,-6.08039 3.34086,-6.48129 1.38182,-0.24385 2.87315,1.80407 3.40769,3.14042 0.54594,1.36484 2.27179,6.74855 2.53906,7.48355 0.26727,0.73499 1.33635,1.9377 1.67043,-0.66818 z"
         style="fill:url(#linearGradient1129);fill-opacity:1;stroke:#000000;stroke-width:0.26458332px;stroke-linecap:butt;stroke-linejoin:miter;stroke-opacity:1" />
      <path
         inkscape:connector-curvature="0"
         id="path5425"
         d="m 111.45573,132.08425 c -1.06306,0.25986 -1.6064,0.8032 -1.6064,0.8032 l 1.03944,1.55915 c 0,0 0.40159,-0.42522 1.18117,-0.51971 0.77958,-0.0945 1.84263,-0.11812 1.84263,-0.11812 l -1.22842,-1.51191 z"
         style="fill:url(#linearGradient1405);stroke:#000000;stroke-width:0.26458332px;stroke-linecap:butt;stroke-linejoin:miter;stroke-opacity:1" />
      <path
         inkscape:connector-curvature="0"
         id="path1614"
         d="m 93.50186,130.1235 c -0.992188,0.47247 -2.976563,1.6064 -2.976563,1.6064 l 2.220611,-2.92931 -1.842635,0.37797 0.755952,-0.8032 2.456846,-0.89769 -0.188989,0.42522 1.322917,-0.28348 -2.645833,2.17336 3.63802,-1.18117 -2.69308,3.73251 0.614212,0.18899 -1.228423,1.79539 0.708705,-0.33073 -0.708705,2.4096 0.519718,-0.42523 -0.566964,2.88207 -1.417411,0.42523 0.141741,-0.99219 -0.425223,-0.56697 0.992188,-2.3151 h -0.614212 l 1.27567,-2.55134 -0.708705,-0.0473 z"
         style="fill:url(#linearGradient1405);fill-opacity:1;stroke:#000000;stroke-width:0.26458332px;stroke-linecap:butt;stroke-linejoin:miter;stroke-opacity:1" />
      <path
         inkscape:connector-curvature="0"
         id="path5427"
         d="m 115.63709,138.69884 c -0.87407,0.7087 -1.48828,1.34653 -1.48828,1.34653 l -0.94494,-1.46465 -1.65365,0.68508 -0.44884,-0.94494 1.18117,-0.92132 h -1.79539 l 0.0945,-1.41741 -0.77958,-0.73233 2.10249,-0.61421 0.30711,0.75595 -0.42522,0.56697 h 0.96856 l -0.4016,0.63783 1.39379,1.22843 c 0,0 0.7087,-0.28349 1.32292,-0.4961 0.61421,-0.21261 0.56696,1.37017 0.56696,1.37017 z"
         style="fill:url(#linearGradient1405);stroke:#000000;stroke-width:0.26458332px;stroke-linecap:butt;stroke-linejoin:miter;stroke-opacity:1" />
      <path
         sodipodi:nodetypes="cccccccccscccccccccccccccccccccc"
         inkscape:connector-curvature="0"
         id="path1618"
         d="m 89.438614,130.73771 -0.992188,2.22061 -2.078868,1.65365 -0.992187,-1.13393 1.322916,-2.59859 -2.55134,1.7009 c 0,0 1.370166,-4.06325 2.645834,-5.38616 1.27567,-1.32292 1.559152,-1.46466 2.504093,-2.17337 0.944941,-0.7087 2.456847,-1.6064 2.456847,-1.6064 0,0 -2.078871,-0.14174 -3.401788,0.33073 -1.322917,0.47247 -3.023809,1.46466 -3.023809,1.46466 0,0 0.803198,-1.27567 1.133927,-1.65364 0.33073,-0.37798 1.039437,-0.75596 1.039437,-0.75596 l -3.307291,0.99219 -0.33073,-0.8032 -2.976562,0.75595 1.464656,-1.37016 -1.181176,-0.14174 1.228423,-0.70871 3.354538,-0.14174 -0.472469,0.42522 2.267858,-0.47246 0.850445,0.80319 h 1.842635 l -1.086681,0.56697 4.771948,0.37797 c 0,0 -3.354538,2.74033 -3.827007,3.16556 -0.472472,0.42522 -0.614212,0.0945 -1.748142,1.79538 -1.133927,1.70089 -1.559152,2.22061 -1.559152,2.22061 l 1.795388,-0.94494 -0.566963,1.32292 z"
         style="fill:url(#linearGradient1405);fill-opacity:1;stroke:#000000;stroke-width:0.26458332px;stroke-linecap:butt;stroke-linejoin:miter;stroke-opacity:1" />
      <path
         inkscape:connector-curvature="0"
         id="path5429"
         d="m 106.44754,128.65884 c -0.54334,0.28349 -1.18117,0.77958 -1.18117,0.77958 l 0.16536,0.73233 0.94494,-0.68508 0.54335,0.14174 -0.23624,1.88988 c 0,0 -0.63784,0.68508 -1.03943,0.99219 -0.40161,0.3071 -0.54334,0.73232 -0.54334,0.73232 v 1.34654 l 1.08668,-0.42522 -0.77958,1.41741 -0.18899,0.8977 -0.0945,0.89769 c 0,0 0.77957,-0.66146 1.39378,-0.94494 0.61422,-0.28348 2.22062,-0.68508 2.22062,-0.68508 0,0 -0.54335,0.0709 -0.75596,-0.47247 -0.21261,-0.54334 -0.82682,-0.30711 -0.82682,-0.30711 0,0 0.92132,-0.99219 1.37016,-1.29929 0.44885,-0.30711 -1.13393,0.21261 -1.13393,0.21261 0,0 0.0472,-0.66146 0.42523,-1.13393 0.37797,-0.47247 -0.68508,-0.0945 -0.68508,-0.0945 l 0.14174,-1.15756 c 0,0 0.56696,-0.92131 0.92131,-1.1103 0.35436,-0.18899 1.01581,-0.63784 1.01581,-0.63784 v -0.66145 l -2.40959,-0.73233 z"
         style="fill:url(#linearGradient1405);stroke:#000000;stroke-width:0.26458332px;stroke-linecap:butt;stroke-linejoin:miter;stroke-opacity:1" />
      <path
         inkscape:connector-curvature="0"
         id="path1620"
         d="m 91.234002,121.76078 c 1.511906,0 3.543528,0.18899 4.441219,0.8032 0.897694,0.61421 1.370166,1.22842 1.937129,0.94494 0.566965,-0.28348 0.661458,-1.51191 0.377975,-1.79539 -0.283479,-0.28348 -2.409597,-1.18117 -3.023809,-1.41741 -0.614211,-0.23623 0.236236,0.66146 0.236236,0.66146 0,0 -2.740326,-0.56697 -3.685267,-0.56697 -0.944941,0 -3.307292,0.0945 -3.307292,0.0945 l -0.425225,0.75595 z"
         style="fill:url(#linearGradient1405);fill-opacity:1;stroke:#000000;stroke-width:0.26458332px;stroke-linecap:butt;stroke-linejoin:miter;stroke-opacity:1" />
      <path
         inkscape:connector-curvature="0"
         id="path5431"
         d="m 105.5971,137.63578 c 0,0 -0.35436,0.0945 -0.8977,0.56696 -0.54334,0.47247 -1.29929,1.53553 -1.29929,1.53553 l 1.39379,-0.59059 -0.51972,1.18118 c 0,0 1.72452,-0.94494 2.19699,-1.13393 0.47247,-0.18899 1.2048,-0.61421 1.2048,-0.61421 z"
         style="fill:url(#linearGradient1405);stroke:#000000;stroke-width:0.26458332px;stroke-linecap:butt;stroke-linejoin:miter;stroke-opacity:1" />
      <path
         inkscape:connector-curvature="0"
         id="path1622"
         d="m 88.351933,125.02082 c 0,0 -2.409597,1.13393 -2.83482,1.6064 -0.425225,0.47247 -0.992187,0.94494 -0.992187,0.94494 l 1.322916,0.0945 -2.740329,3.96875 1.322917,-2.92932 -1.653646,0.23624 2.55134,-2.83483 -0.897694,0.0473 z"
         style="fill:url(#linearGradient1405);fill-opacity:1;stroke:#000000;stroke-width:0.26458332px;stroke-linecap:butt;stroke-linejoin:miter;stroke-opacity:1" />
      <path
         inkscape:connector-curvature="0"
         id="path5433"
         d="m 104.72303,141.29742 c -0.77958,1.39379 -1.25205,3.09468 -1.25205,3.09468 l 1.11031,-1.25204 -0.11812,0.96856 0.66146,-0.59059 c 0,0 0.0472,0.0945 -0.25986,0.77958 -0.30711,0.68508 -0.4016,1.46466 -0.4016,1.46466 0,0 0.47247,-1.06306 0.99219,-1.6064 0.51971,-0.54334 2.43322,-1.6064 2.43322,-1.6064 l -1.70089,0.63783 1.46465,-1.72451 -1.2048,0.73232 v -0.54334 l -1.15755,0.75596 0.35436,-0.77958 -1.18118,1.01581 z"
         style="fill:url(#linearGradient1405);stroke:#000000;stroke-width:0.26458332px;stroke-linecap:butt;stroke-linejoin:miter;stroke-opacity:1" />
      <path
         id="path1496"
         d="m 75.436737,152.20673 -11.006045,3.4308 c 0.483243,5.63052 0.890315,10.16189 0.983404,10.53424 0.267268,1.06907 -1.536552,4.00906 -2.338361,5.34541 -0.69056,1.15092 -1.131184,1.75565 -1.240751,2.20038 1.333114,-0.098 3.405381,-0.3196 4.447792,-0.79737 1.603618,-0.73499 1.202981,-3.87533 3.00705,-5.61257 1.804069,-1.73725 4.877535,-4.94461 6.080249,-6.4146 1.202714,-1.46998 0.06666,-4.81088 0.06666,-8.68629 z"
         style="fill:url(#linearGradient1147);stroke:#000000;stroke-width:0.26458332px;stroke-linecap:butt;stroke-linejoin:miter;stroke-opacity:1"
         inkscape:connector-curvature="0" />
      <path
         inkscape:connector-curvature="0"
         id="path5435"
         d="m 110.69978,125.28068 h -1.86626 l -0.37798,0.28348 -1.29929,-0.11812 0.18899,0.44885 -1.96076,0.63784 h -0.63783 l 1.70089,-0.70871 -0.23623,-0.4016 1.96075,-0.56696 1.88988,0.18898 z"
         style="fill:url(#linearGradient1405);stroke:#000000;stroke-width:0.26458332px;stroke-linecap:butt;stroke-linejoin:miter;stroke-opacity:1" />
      <path
         inkscape:connector-curvature="0"
         id="path1624"
         d="m 82.068079,127.47767 c -0.755952,1.03943 -2.598587,3.21279 -2.598587,3.21279 l -1.370163,-0.85044 1.228423,-2.64583 v -1.32292 l 3.779761,-1.41741 1.984375,0.42522 c 0,0 -2.83482,1.27567 -2.882066,1.7009 -0.04725,0.42522 -0.141743,0.89769 -0.141743,0.89769 z"
         style="fill:url(#linearGradient1405);fill-opacity:1;stroke:#000000;stroke-width:0.26458332px;stroke-linecap:butt;stroke-linejoin:miter;stroke-opacity:1" />
      <path
         id="path1478"
         d="m 64.514925,168.99278 c -0.493781,0.95507 -1.070398,1.90975 -1.43919,2.5244 -0.80181,1.33634 -1.269688,1.9373 -1.269688,2.40502 0,0.46772 -0.267065,1.53691 0.133842,2.40554 0.09341,0.20238 0.148857,0.34156 0.189651,0.45372 1.334486,-1.21264 2.859648,-3.11493 2.616377,-7.737 z"
         style="fill:url(#linearGradient1153);stroke:#000000;stroke-width:0.26458332px;stroke-linecap:butt;stroke-linejoin:miter;stroke-opacity:1"
         inkscape:connector-curvature="0" />
      <path
         inkscape:connector-curvature="0"
         id="path1628"
         d="m 82.87128,120.34337 c -1.27567,-1.51191 -4.299479,-0.70871 -4.299479,-0.70871 l -0.850448,-0.75595 c 0,0 1.133928,-0.47247 2.315104,-0.23623 1.181177,0.23623 0.992188,-0.33073 0.566965,-0.56697 -0.425225,-0.23624 1.322917,-0.66146 2.126115,-0.56696 0.803201,0.0945 2.220611,0.94494 2.220611,0.94494 0,0 -0.141742,-0.70871 0.283483,-0.56697 0.425222,0.14174 1.039434,0.66146 1.039434,0.66146 0,0 1.039434,-0.56696 1.511903,-0.33073 0.472472,0.23624 0.04725,1.03944 0.04725,1.03944 0,0 1.228421,-0.61421 1.700893,-0.51972 0.472469,0.0945 0.330729,0.61421 0.330729,0.61421 l -1.228423,0.23624 c 0,0 0.94494,-0.33073 1.559152,-0.0472 0.614212,0.28348 -2.031622,0.51972 -2.031622,0.51972 l -1.228423,-0.51972 c 0,0 -0.661458,-0.37798 -1.370163,-0.23624 -0.708705,0.14174 -0.850448,0.18899 -1.748142,-0.33073 -0.897692,-0.51971 -1.795386,-0.42522 -1.795386,-0.42522 0,0 1.322917,0.75595 1.559153,1.22842 0.236233,0.47247 -0.708705,0.56697 -0.708705,0.56697 z"
         style="fill:url(#linearGradient1405);fill-opacity:1;stroke:#000000;stroke-width:0.26458332px;stroke-linecap:butt;stroke-linejoin:miter;stroke-opacity:1" />
      <path
         inkscape:connector-curvature="0"
         id="path1021"
         d="m 63.075608,134.50013 c 0,0 -0.80181,1.9377 -2.472243,6.01356 -1.670437,4.07586 -4.276312,7.81764 -3.674957,11.42577 0.601356,3.60814 1.937705,7.21628 3.006783,8.15172 1.069078,0.93545 4.142677,1.73726 3.875408,0.80181 -0.267269,-0.93544 -1.336347,-2.27179 -0.601356,-3.27405 0.734989,-1.00226 5.746292,-7.08264 5.879928,-8.81989 0.133636,-1.73726 -6.013563,-14.29892 -6.013563,-14.29892 z"
         style="fill:url(#linearGradient1135);stroke:#000000;stroke-width:0.26458332px;stroke-linecap:butt;stroke-linejoin:miter;stroke-opacity:1" />
      <path
         sodipodi:nodetypes="cccscccccc"
         inkscape:connector-curvature="0"
         id="path1023"
         d="m 61.329956,146.41056 c -1.060641,-0.24989 -2.618338,1.00521 -4.13448,2.18812 0,0 -0.0375,0.01 -0.04082,0.0103 -0.292958,1.12606 -0.408975,2.23476 -0.226343,3.33055 0.601355,3.60814 1.937972,7.216 3.00705,8.15144 1.069078,0.93545 4.142486,1.73747 3.875217,0.80202 -0.267269,-0.93544 -1.336506,-2.27196 -0.601514,-3.27422 0.26103,-0.35595 1.069633,-1.36475 1.999361,-2.57969 -0.235059,-0.69253 -0.395325,-1.30328 -0.395325,-1.7632 -0.114723,-2.5784 -1.560893,-6.40892 -3.483141,-6.86535 z"
         style="fill:url(#linearGradient1141);stroke:#000000;stroke-width:0.26458332px;stroke-linecap:butt;stroke-linejoin:miter;stroke-opacity:1" />
      <path
         sodipodi:nodetypes="cccccccc"
         inkscape:connector-curvature="0"
         id="path1442"
         d="m 62.778597,128.55598 -0.438216,1.93528 c 0,0 2.540066,29.80484 2.877418,31.83733 3.282719,-3.09197 9.816568,-5.85342 11.288125,-10.8567 0,0 -4.810771,-7.21642 -6.280754,-9.75548 -1.469982,-2.53905 -3.007053,-8.61963 -3.007053,-8.61963 0,0 -1.603679,-1.87048 -3.541384,-3.74137 -0.315476,-0.3046 -0.611783,-0.56222 -0.898136,-0.79943 z"
         style="fill:url(#linearGradient1153);stroke:#000000;stroke-width:0.26458332px;stroke-linecap:butt;stroke-linejoin:miter;stroke-opacity:1" />
      <path
         inkscape:connector-curvature="0"
         id="path1626"
         d="m 80.083704,124.87908 c -0.330729,0.14174 -1.370163,0.0945 -1.937128,0.70871 -0.566963,0.61421 -1.41741,3.2128 -1.41741,3.2128 l -1.41741,-1.93713 1.370163,-2.03162 c 0,0 -0.944941,0.37797 -1.41741,0.94493 -0.472472,0.56697 -0.708708,0.94494 -0.708708,0.94494 l 0.283483,-1.18117 -1.086681,1.37016 v -2.45684 c 0,0 -1.464656,2.07887 -1.559152,2.83482 -0.09449,0.75595 -0.09449,1.65365 -0.472469,1.37016 -0.377976,-0.28348 -1.322917,-1.27567 -1.322917,-1.93713 0,-0.66145 1.086681,-2.97656 1.41741,-3.26004 0.330729,-0.28348 -2.031622,0.66146 -2.031622,0.66146 l 0.614212,-1.65365 c 0,0 0.755952,-0.7087 1.606399,-0.94494 0.850445,-0.23623 1.322917,-0.42522 1.322917,-0.42522 0,0 -1.464659,-0.28348 -1.937129,-0.18899 -0.472471,0.0945 2.740327,-0.89769 2.740327,-0.89769 l 0.425222,-0.28348 c 0,0 1.228424,-0.33073 2.220611,-0.14174 0.992188,0.18898 1.748139,0.61421 1.748139,0.61421 0,0 -1.370163,0.0945 -2.078868,0.23623 -0.708705,0.14174 -1.889882,0.66146 -1.889882,0.66146 l 1.228424,0.47247 h 2.267857 c 0,0 -1.653645,0.94494 -1.937128,1.18117 -0.283482,0.23624 0.236236,0.75596 0.236236,0.75596 0,0 0.614212,-0.56697 1.984375,-0.94494 1.370163,-0.37798 1.984375,-0.28348 1.984375,-0.28348 0,0 -1.322917,0.42522 -2.220611,0.94494 -0.897694,0.51971 2.126118,-0.33073 2.55134,-0.42523 0.425222,-0.0945 -2.976562,1.6064 -2.976562,1.6064 l 2.315104,-0.51971 z"
         style="fill:url(#linearGradient1405);fill-opacity:1;stroke:#000000;stroke-width:0.26458332px;stroke-linecap:butt;stroke-linejoin:miter;stroke-opacity:1" />
      <path
         inkscape:connector-curvature="0"
         id="path1630"
         d="m 93.690846,124.50111 c 0,0 -2.220608,1.55915 -2.50409,2.12611 -0.283483,0.56697 -0.803201,1.88988 -0.803201,1.88988 l 5.811385,-3.59077 v 2.17336 c 0,0 1.795385,0.61421 2.740326,0.14174 0.944941,-0.47247 -0.897691,-1.03943 -0.897691,-1.03943 l 2.267855,-0.61421 c 0,0 -0.519716,-0.51972 -1.039435,-0.61421 -0.519715,-0.0945 -0.708705,-0.47247 -0.519715,-0.56697 0.188986,-0.0945 1.41741,-0.51971 1.55915,-0.18899 0.14174,0.33073 0.42522,1.27567 1.13393,1.22842 0.7087,-0.0472 2.69308,-0.6142 2.69308,-0.6142 0,0 2.69308,-0.47248 3.73251,-0.56697 1.03944,-0.0945 1.84264,-0.42522 1.84264,-0.42522 0,0 -1.41741,-0.85045 -1.98438,-0.51972 -0.56696,0.33073 -0.18899,-0.56697 -0.75595,-0.23624 -0.56696,0.33073 -1.03943,0.61422 -1.6064,0.47248 -0.56696,-0.14175 -1.32291,-0.75596 -1.88988,-1.03944 -0.56696,-0.28348 -3.16555,-0.99219 -2.88207,-0.56696 0.28348,0.42522 0.28348,0.80319 0.28348,0.80319 0,0 -0.56696,0 -1.275665,0.33073 -0.708705,0.33073 -1.795386,0.85045 -2.504091,0.85045 -0.708705,0 -2.173364,-0.66146 -2.173364,-0.66146 z"
         style="fill:url(#linearGradient1405);fill-opacity:1;stroke:#000000;stroke-width:0.26458332px;stroke-linecap:butt;stroke-linejoin:miter;stroke-opacity:1" />
      <path
         sodipodi:nodetypes="czzszccccc"
         inkscape:connector-curvature="0"
         id="path1632"
         d="m 139.47321,137.54128 c -0.0472,-0.47247 2.57432,-2.69279 5.33892,-4.15774 2.7646,-1.46495 4.91369,-2.55134 6.66183,-3.40178 1.74814,-0.85044 3.16555,-0.94494 3.30729,-0.33073 0.14174,0.61421 -0.0945,2.31511 -1.18118,4.06325 -1.08668,1.74813 -1.98437,3.07105 -3.02381,4.6302 -1.03943,1.55916 -3.77976,4.91369 -3.77976,4.91369 0,0 -0.47247,-2.69308 -1.18118,-2.92931 -0.7087,-0.23624 -4.06324,-1.08668 -4.81919,-1.7009 -0.75595,-0.61421 -1.32292,-1.08668 -1.32292,-1.08668 z"
         style="fill:url(#linearGradient1129);fill-opacity:1;stroke:#000000;stroke-width:0.26458332px;stroke-linecap:butt;stroke-linejoin:miter;stroke-opacity:1" />
      <path
         id="path1646"
         d="m 138.14144,152.94105 c -0.19427,-0.003 -0.3822,2.6e-4 -0.56017,0.006 a 0.9375754,0.93757545 0 0 0 -0.15607,0.51676 0.9375754,0.93757545 0 0 0 0.93793,0.93741 0.9375754,0.93757545 0 0 0 0.93741,-0.93741 0.9375754,0.93757545 0 0 0 -0.0961,-0.41134 c -0.26729,-0.0739 -0.66378,-0.1047 -1.06298,-0.11111 z"
         style="opacity:1;fill:url(#linearGradient1417);fill-opacity:1;stroke:#4a3730;stroke-width:0.23206638;stroke-miterlimit:4;stroke-dasharray:none;stroke-dashoffset:0;stroke-opacity:1"
         inkscape:connector-curvature="0" />
      <path
         inkscape:connector-curvature="0"
         id="path1642"
         d="m 141.57571,155.96762 c 0,0 -1.22843,-0.82682 -1.22843,-1.03943 0,-0.21261 -0.49609,-1.46466 -0.89769,-1.77176 -0.4016,-0.30711 -2.22061,-0.21262 -2.59859,-0.16537 -0.37797,0.0472 -1.58277,-0.0236 -1.58277,-0.0236 0,0 1.25204,0.18899 1.41741,0.33073 0.16536,0.14175 0.54334,0.70871 0.94494,0.8977 0.4016,0.18898 0.89769,0.42522 1.39379,0.49609 0.49609,0.0709 1.20479,0.33073 1.34654,0.42522 0.14174,0.0945 1.2048,0.85045 1.2048,0.85045 z"
         style="fill:none;stroke:#000000;stroke-width:0.26458332px;stroke-linecap:butt;stroke-linejoin:miter;stroke-opacity:1" />
      <path
         inkscape:connector-curvature="0"
         id="path1644"
         d="m 148.09579,153.15643 c 0,0 -0.82682,-0.0236 -0.99218,0.21261 -0.16537,0.23623 -0.70871,0.85044 -0.75596,1.44103 -0.0472,0.59059 -0.0709,0.70871 -0.0709,0.70871 0,0 0.70871,-0.33073 1.01582,-0.85045 0.3071,-0.51972 0.54334,-1.48828 0.54334,-1.48828 z"
         style="fill:url(#linearGradient1417);fill-opacity:1;stroke:#000000;stroke-width:0.26458332px;stroke-linecap:butt;stroke-linejoin:miter;stroke-opacity:1" />
      <path
         sodipodi:nodetypes="cccsscsccc"
         inkscape:connector-curvature="0"
         id="path1659"
         d="m 148.78087,165.984 c -0.0236,0.21261 0.0709,0.63784 -0.28348,1.01581 -0.35436,0.37798 -0.54334,0.8032 -0.94494,0.94494 -0.4016,0.14175 -2.07887,0.18899 -2.48047,-0.28348 -0.4016,-0.47247 -0.75595,-0.37797 -0.75595,-1.2048 0,-0.82682 -0.16537,-1.03943 0.23623,-1.65364 0.4016,-0.61422 1.41741,-0.61422 1.77176,-0.61422 0.35436,0 1.18118,-0.33072 1.46466,-0.25985 0.28348,0.0709 0.52917,0.16536 0.67091,0.51972 0.14174,0.35435 0.32128,1.53552 0.32128,1.53552 z"
         style="fill:url(#radialGradient1671);fill-opacity:1;stroke:#000000;stroke-width:0.26458332px;stroke-linecap:butt;stroke-linejoin:miter;stroke-opacity:1" />
      <path
         sodipodi:nodetypes="ccccccccccccccccccccccccccccscccccccccccccccsscc"
         inkscape:connector-curvature="0"
         id="path1675"
         d="m 93.87842,136.00351 1.637027,-2.10475 -0.100226,1.73725 1.336346,-1.50339 -0.467719,4.84426 2.271789,-3.27405 -0.567947,2.23838 1.202711,-1.67043 -0.534537,2.20497 2.839736,-4.04245 -0.50113,2.83974 1.1359,-0.83522 -0.60136,2.17157 0.50113,-0.56795 -0.10022,2.3052 0.43431,-0.43432 0.10022,0.96886 -0.86862,0.83521 0.4009,1.00227 0.70159,-0.20046 0.33408,0.83522 c 0,0 -0.33408,3.27405 -0.90203,3.97563 -0.56795,0.70159 -2.00452,3.0736 -2.00452,3.0736 l -0.734995,-0.3675 2.138155,-5.24516 -2.77292,4.74404 -0.701583,-0.4009 c 0,0 1.870886,-3.70837 2.138153,-3.97564 0.26727,-0.26727 -2.037928,2.87315 -2.639283,3.57473 -0.601356,0.70158 -0.400905,-0.20043 -0.400905,-0.20043 -0.04677,-0.83541 1.501697,-2.81982 1.570209,-3.64155 -0.701582,1.10247 -2.806329,3.94221 -2.806329,3.94221 l 2.171565,-6.38106 -1.670435,3.80859 c 0,0 -0.300678,-1.00226 0.167044,-2.50565 0.467721,-1.5034 1.670434,-4.27632 1.670434,-4.27632 0,0 -0.734991,1.06908 -0.868626,1.36976 -0.133634,0.30068 -0.334087,0.93544 -0.334087,0.93544 0,0 -0.23386,-1.57021 -0.167043,-2.03793 0.06682,-0.46772 0.233861,-0.83521 0.233861,-0.83521 l -1.202713,2.17156 -0.668174,-0.46772 -0.367496,-0.56795 c 0,0 0.03341,-2.20497 0.367496,-2.73951 0.334087,-0.53454 -1.035669,1.00226 -1.035669,1.40316 0,0.40091 -0.400905,-1.00226 -0.400905,-1.67043 0,-0.66817 0.06682,-1.03567 0.06682,-1.03567 z"
         style="fill:url(#linearGradient1405);fill-opacity:1;stroke:#000000;stroke-width:0.26458332px;stroke-linecap:butt;stroke-linejoin:miter;stroke-opacity:1" />
      <path
         inkscape:connector-curvature="0"
         id="path1677"
         d="m 100.79402,132.62923 c 0,0 -0.53454,0.23386 -0.835218,0.73499 -0.300678,0.50113 -0.902034,1.40317 -0.902034,1.40317 l -0.434313,-1.1359 c 0,0 0.567946,-0.93544 1.369755,-1.40316 0.80181,-0.46773 -0.434313,-0.56795 -0.434313,-0.56795 l -1.971111,1.1693 1.603615,-1.90429 c 0,0 -0.968851,0.50113 -1.503389,0.96885 -0.53454,0.46772 -1.369758,1.06908 -1.369758,1.06908 l -0.200451,-0.56795 c 0,0 0.367496,-0.7684 1.035669,-1.20271 0.668173,-0.43432 -0.701582,-0.7684 -0.701582,-0.7684 l -1.603616,1.00226 2.472243,-2.63929 -0.100227,0.73499 c 0,0 0.801809,-0.60135 1.436574,-0.7684 0.634764,-0.16704 1.102487,0.26727 1.102487,0.26727 0,0 -0.868627,0.33409 -1.169305,0.60136 -0.300678,0.26727 -0.668174,0.53454 -0.668174,0.53454 0,0 1.069078,-0.53454 1.23612,-0.40091 0.167045,0.13364 0.634768,0.43431 0.634768,0.43431 l -0.968854,0.56795 c 0,0 1.603614,-1.03567 2.171564,-1.03567 0.56795,0 1.57021,-1.13589 1.57021,-1.13589 l -1.00226,0.0668 c 0,0 0.70158,-0.7684 1.23612,-0.90204 0.53454,-0.13363 1.36976,-0.3675 1.36976,-0.3675 v 0.40091 c 0,0 0.80181,0.10023 0.80181,0.26727 0,0.16704 -0.76841,0.36749 -0.76841,0.36749 l -0.0668,0.23387 -0.63477,0.23386 0.83522,0.16704 c 0,0 -1.26953,0.16704 -1.60362,0.33409 -0.33408,0.16704 -1.5368,0.70158 -1.5368,0.70158 0,0 0.53454,-0.26727 1.06908,-0.13364 0.53454,0.13364 -1.60362,0.83522 -1.60362,0.83522 0,0 0.56795,-0.20045 1.26954,-0.30068 0.70158,-0.10022 -0.90204,0.76841 -0.90204,0.76841 0,0 1.1359,-0.76841 1.57021,-0.56795 0.43431,0.20045 -1.5368,1.03566 -1.5368,1.03566 z"
         style="fill:url(#linearGradient1405);fill-opacity:1;stroke:#000000;stroke-width:0.26458332px;stroke-linecap:butt;stroke-linejoin:miter;stroke-opacity:1" />
      <path
         sodipodi:nodetypes="cccssccsc"
         inkscape:connector-curvature="0"
         id="path865"
         d="m 120.23788,163.26501 c -0.80181,1.63702 -1.5034,2.57784 -2.37202,3.2126 -0.86863,0.63477 -4.40995,2.96801 -4.40995,2.96801 0,0 -2.32411,-1.49597 -3.47036,-2.74332 -0.78369,-0.85281 -1.51782,-2.477 -1.69187,-3.72068 -0.42358,-3.02682 -0.53991,-7.70129 -0.53991,-7.70129 0,0 1.92696,0.30068 2.59513,0.90204 0.66818,0.60135 3.842,2.57246 5.44562,3.90881 1.60362,1.33635 4.44336,3.17383 4.44336,3.17383 z"
         style="fill:url(#linearGradient1135);fill-opacity:1;stroke:#000000;stroke-width:0.26458332px;stroke-linecap:butt;stroke-linejoin:miter;stroke-opacity:1" />
      <path
         id="path934"
         d="m 100.2807,188.92232 c -0.10239,0.10534 -0.12399,0.27518 -0.329696,0.6382 -0.4016,0.7087 -1.039214,1.15726 -1.866037,0.94464 -0.826823,-0.2126 -2.008145,-0.30695 -2.669604,0.18914 -0.661458,0.4961 -1.440889,0.56712 -1.960604,1.18132 -0.519716,0.6142 -1.27567,1.22828 -1.653646,1.29915 -0.377976,0.0709 -0.425519,3.47244 -0.212905,3.85041 0.212611,0.37798 0.921316,1.29921 1.157552,1.39371 0.04842,0.0194 0.123592,0.0579 0.202054,0.0972 1.734066,-0.24738 0.37977,-1.79367 0.763778,-2.20969 0.400905,-0.43431 2.839776,-1.06901 3.441134,-1.70377 0.601358,-0.63477 2.872954,-1.00265 3.875214,-1.50378 1.00226,-0.50113 1.30294,-1.77042 0.66818,-3.67472 0,0 -0.54007,-0.22529 -1.41542,-0.50177 z"
         style="fill:url(#linearGradient1147);stroke:#000000;stroke-width:0.26458332px;stroke-linecap:butt;stroke-linejoin:miter;stroke-opacity:1"
         inkscape:connector-curvature="0" />
      <path
         id="path1515"
         d="m 101.81704,186.37725 c -0.0148,0.35499 -0.0543,1.19126 -0.0543,1.24282 0,0.53454 -0.73484,1.06919 -0.73484,1.06919 -0.98231,0.18616 -0.67534,0.16255 -1.076936,0.87126 -0.4016,0.7087 -1.039214,1.15726 -1.866037,0.94464 -0.826823,-0.2126 -2.008145,-0.30695 -2.669604,0.18914 -0.661458,0.4961 -1.440889,0.56712 -1.960604,1.18132 -0.477237,0.564 -1.150239,1.12227 -1.550292,1.26556 -0.06445,0.47488 -0.106027,0.88051 -0.09715,1.09347 0.03341,0.80181 0.601284,1.26969 1.703771,1.26969 1.102487,0 2.13215,-2.30701 3.140379,-2.97346 1.008226,-0.66645 2.672823,-0.90189 5.078243,-2.73937 1.53887,-2.39115 0.9702,-3.24322 0.0873,-3.41426 z"
         style="fill:url(#linearGradient1135);stroke:#000000;stroke-width:0.26458332px;stroke-linecap:butt;stroke-linejoin:miter;stroke-opacity:1"
         inkscape:connector-curvature="0" />
      <path
         inkscape:connector-curvature="0"
         id="path1066"
         d="m 121.44059,130.89198 c -1.06908,-1.26952 -1.30294,-1.5702 -1.73725,-1.73725 -0.43431,-0.16704 -0.83522,-0.4009 -0.83522,-0.4009 l 0.33409,0.63477 -1.26953,0.53453 c 0,0 0.56795,0.0334 0.96885,0.73499 0.4009,0.70159 0.83522,0.96886 0.83522,0.96886 z"
         style="fill:url(#linearGradient1405);stroke:#000000;stroke-width:0.26458332px;stroke-linecap:butt;stroke-linejoin:miter;stroke-opacity:1" />
      <path
         inkscape:connector-curvature="0"
         id="path1068"
         d="m 122.20899,134.33308 c -2.57247,-0.53454 -1.90429,-0.70158 -1.90429,-0.70158 l -0.13364,-1.03567 1.30294,0.4009 -0.56795,-0.46772 c 0,0 0.60136,-0.46772 1.57021,0 0.96885,0.46772 1.73725,1.1359 1.73725,1.1359 z"
         style="fill:url(#linearGradient1405);stroke:#000000;stroke-width:0.26458332px;stroke-linecap:butt;stroke-linejoin:miter;stroke-opacity:1" />
      <path
         inkscape:connector-curvature="0"
         id="path1070"
         d="m 123.74579,137.03918 c -2.73951,0.23387 -2.27179,0.16705 -2.27179,0.16705 l -0.83522,-0.80181 2.40543,-0.30068 z"
         style="fill:url(#linearGradient1405);stroke:#000000;stroke-width:0.26458332px;stroke-linecap:butt;stroke-linejoin:miter;stroke-opacity:1" />
      <path
         inkscape:connector-curvature="0"
         id="path1074"
         d="m 116.32906,125.9475 c -0.63476,-0.83522 -0.63476,-0.83522 -0.63476,-0.83522 l -0.50113,0.16705 -0.26727,-0.3675 -1.36976,-0.43431 c 0,0 -0.13363,0.26727 -0.13363,0.53454 0,0.26727 0.20045,0.60135 0.20045,0.60135 0,0 0.90203,-0.10022 1.40316,0 0.50113,0.10023 1.30294,0.33409 1.30294,0.33409 z"
         style="fill:url(#linearGradient1405);stroke:#000000;stroke-width:0.26458332px;stroke-linecap:butt;stroke-linejoin:miter;stroke-opacity:1" />
      <path
         inkscape:connector-curvature="0"
         id="path1076"
         d="m 115.96157,127.28385 c -1.60362,-0.56795 -2.37202,-0.40091 -2.37202,-0.40091 l -0.23386,0.80181 c 0,0 0,-0.16704 1.00226,0 1.00226,0.16705 1.9377,0.83522 1.9377,0.83522 z"
         style="fill:url(#linearGradient1405);stroke:#000000;stroke-width:0.26458332px;stroke-linecap:butt;stroke-linejoin:miter;stroke-opacity:1" />
      <path
         inkscape:connector-curvature="0"
         id="path5413"
         d="m 116.06179,132.36196 c -1.23612,-1.06908 -2.03793,-1.1359 -2.03793,-1.1359 l 3.0736,-0.63476 c 0,0 -1.03567,-0.53454 -2.20497,-0.53454 -1.16931,0 -1.80407,-0.4009 -1.80407,-0.4009 l 0.36749,-0.63477 -0.60135,-0.30068 -0.30068,-0.56794 c 0,0 0.60136,-0.20046 1.63703,0 1.03566,0.20045 2.50565,1.03566 2.50565,1.03566 l 0.90203,1.00226 1.06908,1.70385 -0.16704,1.06908 -0.70159,0.4009 0.53454,1.26953 c 0,0 -1.5368,0 -1.97111,-0.43431 -0.43431,-0.43432 0.73499,-1.30294 0.73499,-1.30294 z"
         style="fill:url(#linearGradient1405);stroke:#000000;stroke-width:0.26458332px;stroke-linecap:butt;stroke-linejoin:miter;stroke-opacity:1" />
      <path
         inkscape:connector-curvature="0"
         id="path5415"
         d="m 120.00402,136.97236 c -1.43658,0.23386 -2.80633,1.00226 -2.80633,1.00226 l 0.66817,0.4009 -1.70384,0.66818 1.30294,0.73499 -1.60362,1.1693 0.20045,0.63477 1.83748,-0.80181 V 140.213 l 1.5368,-0.63476 v -1.5368 -0.33409 l 0.53454,-0.20045 z"
         style="fill:url(#linearGradient1405);stroke:#000000;stroke-width:0.26458332px;stroke-linecap:butt;stroke-linejoin:miter;stroke-opacity:1" />
      <path
         inkscape:connector-curvature="0"
         id="path5417"
         d="m 116.39588,136.17055 c -1.50339,0 -1.83748,0.3675 -1.83748,0.3675 l -0.36749,-0.56795 1.00226,-0.50113 -1.70385,0.26727 -0.66817,-0.73499 c 0,0 1.50339,-0.26727 1.97111,-0.26727 0.46772,0 1.33635,0.33408 1.33635,0.33408 l 1.1693,-0.0668 v 0.53453 l -0.90203,0.26728 z"
         style="fill:url(#linearGradient1405);stroke:#000000;stroke-width:0.26458332px;stroke-linecap:butt;stroke-linejoin:miter;stroke-opacity:1" />
      <path
         inkscape:connector-curvature="0"
         id="path5419"
         d="m 123.51193,138.84325 -2.63929,-0.86863 v 1.06908 l -0.56794,0.66817 1.23612,0.60136 -1.80407,0.46772 1.00226,0.53454 -0.10023,0.36749 -1.26953,0.3675 -0.23386,0.66817 1.26953,0.23387 -1.20271,1.30293 0.86862,0.60136 -1.63702,0.96885 -0.50113,2.43884 c 0,0 0.80181,-0.90204 1.5368,-0.96885 0.73499,-0.0668 2.63929,-0.16705 2.63929,-0.16705 l 1.43657,-1.77066 -1.03567,-0.60135 -1.36976,-1.10249 2.40543,-0.66818 -1.33635,-0.8018 1.03567,-0.0334 -0.4009,-1.20272 1.13589,0.30068 0.66818,-1.43657 z"
         style="fill:url(#linearGradient1405);stroke:#000000;stroke-width:0.26458332px;stroke-linecap:butt;stroke-linejoin:miter;stroke-opacity:1" />
      <path
         inkscape:connector-curvature="0"
         id="path5421"
         d="m 113.35569,145.69203 c -0.56795,1.30294 -0.90204,2.20497 -0.90204,2.20497 l 0.66818,0.43432 v 0.83521 l 0.4009,1.87089 c 0,0 0.16704,-0.86863 0.70158,-1.80407 0.53454,-0.93544 1.10249,-1.20271 1.10249,-1.20271 0,0 -1.26953,2.3052 -1.5368,3.17382 -0.26727,0.86863 -0.26727,1.70384 -0.26727,1.70384 0,0 1.03567,-1.90429 1.43658,-2.37201 0.4009,-0.46772 -0.0668,0.86862 -0.0668,1.43657 0,0.56795 0.10022,0.20045 0.86862,-0.46772 0.7684,-0.66817 1.50339,-0.90204 1.50339,-0.90204 0,0 -0.86862,0.70159 -1.1693,1.57021 -0.30068,0.86863 -0.20045,2.33861 -0.20045,2.33861 0,0 0.36749,-0.86862 0.80181,-1.9377 0.43431,-1.06908 1.5368,-1.67044 1.5368,-1.67044 0,0 -1.33635,2.43884 -1.36976,3.24065 -0.0334,0.8018 0.20045,1.43657 0.20045,1.43657 0,0 0.66818,-1.60362 1.10249,-2.63929 0.43431,-1.03567 2.00452,-2.37201 2.00452,-2.37201 l 0.13364,-0.83522 -1.16931,0.73499 -0.90203,-1.03567 -1.83748,0.80181 0.3675,-1.73725 -1.03568,0.50113 v -1.26953 l -1.97111,0.13363 1.03567,-1.46998 z"
         style="fill:url(#linearGradient1405);stroke:#000000;stroke-width:0.26458332px;stroke-linecap:butt;stroke-linejoin:miter;stroke-opacity:1" />
      <path
         id="path964"
         d="m 81.436373,166.93606 c -0.408321,0.23398 -0.826796,0.43935 -1.258321,0.60668 -2.315107,0.8977 -4.110271,0.85059 -5.338694,2.50424 -1.228423,1.65365 -1.842556,3.02344 -2.220537,4.15737 -0.165653,0.49696 -0.2105,1.46475 -0.211873,2.55333 0.404429,0.70411 0.902843,1.40321 1.298631,2.12494 0.803195,1.46466 1.511681,2.07865 1.70067,1.36994 0.188987,-0.7087 -0.283332,-2.92939 -0.141594,-4.39405 0.141745,-1.46465 0.755732,-2.83459 2.031402,-4.67723 1.093319,-1.57924 2.085292,-2.48765 4.140316,-4.24522 z"
         style="fill:url(#linearGradient1141);stroke:#000000;stroke-width:0.26458332px;stroke-linecap:butt;stroke-linejoin:miter;stroke-opacity:1"
         inkscape:connector-curvature="0" />
      <path
         id="path982"
         d="m 73.078741,191.86787 c -0.06624,0.0166 -0.127661,0.0457 -0.176731,0.10181 -0.330729,0.37797 0.09442,1.3232 0.236159,2.03191 0.14174,0.7087 0.494761,2.90588 2.632917,3.30678 1.334701,0.25026 1.991971,0.0316 2.492869,-0.46044 -0.05126,-0.11401 -0.106267,-0.22277 -0.164848,-0.31884 -0.590587,-0.96856 -0.731888,1.4e-4 -0.424778,-0.96842 0.307102,-0.96856 -0.496094,-1.29914 -0.661459,-0.63769 -0.165364,0.66146 -0.898062,0.0943 -1.465027,-0.3545 -0.566962,-0.44885 -0.448482,-1.4885 -0.684712,-1.93735 -0.236236,-0.44884 -1.464807,0.16559 -1.677419,-0.54312 0,0 -0.04003,-0.0934 -0.106971,-0.22014 z"
         style="fill:url(#linearGradient1153);stroke:#000000;stroke-width:0.26458332px;stroke-linecap:butt;stroke-linejoin:miter;stroke-opacity:1"
         inkscape:connector-curvature="0" />
    </g>
  </g>
</svg>
